<svg width="48" height="48" viewBox="0 0 48 48" fill="none" xmlns="http://www.w3.org/2000/svg">
<path fill-rule="evenodd" clip-rule="evenodd" d="M23.9556 0C10.727 0 0 10.9079 0 24.3645C0 35.1296 6.864 44.2626 16.3823 47.4844C17.5795 47.7099 18.019 46.9558 18.019 46.3123C18.019 45.7313 17.9968 43.812 17.9865 41.776C11.3221 43.2499 9.91577 38.9013 9.91577 38.9013C8.82605 36.085 7.25593 35.3362 7.25593 35.3362C5.08245 33.824 7.41977 33.8551 7.41977 33.8551C9.82532 34.0265 11.092 36.3659 11.092 36.3659C13.2286 40.0907 16.6961 39.0139 18.0631 38.3913C18.2781 36.817 18.8989 35.7413 19.584 35.1333C14.2631 34.5172 8.66975 32.428 8.66975 23.092C8.66975 20.4319 9.60555 18.2584 11.138 16.5521C10.8893 15.938 10.0693 13.4603 11.37 10.1042C11.37 10.1042 13.3817 9.44935 17.9595 12.6017C19.8704 12.0618 21.9197 11.7911 23.9556 11.7818C25.9914 11.7911 28.0423 12.0618 29.9568 12.6017C34.5291 9.44935 36.5379 10.1042 36.5379 10.1042C37.8419 13.4603 37.0215 15.938 36.7728 16.5521C38.3088 18.2584 39.2382 20.4319 39.2382 23.092C39.2382 32.4502 33.6341 34.5107 28.2998 35.1139C29.159 35.87 29.9246 37.3528 29.9246 39.6259C29.9246 42.8856 29.8969 45.5094 29.8969 46.3123C29.8969 46.9607 30.3281 47.7204 31.5423 47.4812C41.0555 44.2558 47.9107 35.126 47.9107 24.3645C47.9107 10.9079 37.1853 0 23.9556 0Z" fill="white"/>
<path fill-rule="evenodd" clip-rule="evenodd" d="M9.07319 34.9824C9.02043 35.1038 8.83319 35.1397 8.66261 35.0566C8.48886 34.9771 8.39127 34.8121 8.4476 34.6906C8.49917 34.566 8.68681 34.5317 8.86016 34.6144C9.03431 34.6943 9.13349 34.8609 9.07319 34.9824Z" fill="white"/>
<path fill-rule="evenodd" clip-rule="evenodd" d="M10.0435 36.083C9.92926 36.1908 9.70592 36.1407 9.55438 35.9705C9.39769 35.8006 9.36833 35.5734 9.48417 35.4641C9.60198 35.3564 9.81858 35.4068 9.97567 35.5767C10.1324 35.7486 10.1629 35.9741 10.0435 36.083Z" fill="white"/>
<path fill-rule="evenodd" clip-rule="evenodd" d="M10.988 37.4863C10.8413 37.59 10.6013 37.4928 10.4529 37.2761C10.3061 37.0594 10.3061 36.7996 10.4561 36.6955C10.6048 36.5914 10.8413 36.685 10.9916 36.9001C11.138 37.12 11.138 37.3802 10.988 37.4863Z" fill="white"/>
<path fill-rule="evenodd" clip-rule="evenodd" d="M12.2821 38.842C12.1507 38.9893 11.8711 38.9497 11.6664 38.7488C11.4569 38.5523 11.3986 38.2735 11.5303 38.1262C11.6632 37.9785 11.9445 38.0201 12.1507 38.2194C12.3586 38.4155 12.4221 38.6963 12.2821 38.842Z" fill="white"/>
<path fill-rule="evenodd" clip-rule="evenodd" d="M14.0672 39.6292C14.0093 39.82 13.7399 39.9067 13.4686 39.8256C13.1976 39.7421 13.0203 39.5186 13.075 39.3257C13.1314 39.1337 13.4019 39.0433 13.6752 39.1301C13.9458 39.2132 14.1235 39.4351 14.0672 39.6292Z" fill="white"/>
<path fill-rule="evenodd" clip-rule="evenodd" d="M16.0276 39.7752C16.0344 39.9762 15.8043 40.1428 15.5195 40.146C15.2331 40.1529 15.0014 39.9903 14.9982 39.7926C14.9982 39.5896 15.2231 39.4246 15.5096 39.4198C15.7944 39.4141 16.0276 39.5755 16.0276 39.7752Z" fill="white"/>
<path fill-rule="evenodd" clip-rule="evenodd" d="M17.852 39.4593C17.8861 39.6554 17.6882 39.8567 17.4054 39.91C17.1273 39.962 16.8698 39.841 16.8345 39.6465C16.8 39.4456 17.0015 39.2442 17.2792 39.1922C17.5624 39.1422 17.8159 39.26 17.852 39.4593Z" fill="white"/>
</svg>
